Coordinates
version=1
nRows=8
nColumns=42
inDegrees=yes

Units are S.I. units (second, meters, Newtons, ...)
If the header above contains a line with 'inDegrees', this indicates whether rotational values are in degrees (yes) or radians (no).

endheader
time	pelvis_tilt	pelvis_list	pelvis_rotation	pelvis_tx	pelvis_ty	pelvis_tz	hip_flexion_r	hip_adduction_r	hip_rotation_r	knee_angle_r	knee_adduction_r	knee_angle_r_beta	ankle_angle_r	subtalar_angle_r	mtp_angle_r	hip_flexion_l	hip_adduction_l	hip_rotation_l	knee_angle_l	knee_adduction_l	knee_angle_l_beta	ankle_angle_l	subtalar_angle_l	mtp_angle_l	lumbar_extension	lumbar_bending	lumbar_rotation	arm_flex_r	arm_add_r	arm_rot_r	elbow_flex_r	pro_sup_r	wrist_flex_r	wrist_dev_r	arm_flex_l	arm_add_l	arm_rot_l	elbow_flex_l	pro_sup_l	wrist_flex_l	wrist_dev_l
      3.50000000	      2.46728957	     -3.25679876	     -1.53616870	     -0.06589650	      0.92348086	     -0.07763762	      3.28906612	     -3.93823226	    -20.70181170	     31.00406964	      4.71532686	      0.54112310	     22.59904428	     11.02593752	     -7.57391677	     24.27628139	     -8.56116469	    -18.46720117	     38.09183974	     -2.47576352	      0.66482802	     10.78875024	     -1.42633090	     -7.57391677	    -18.01537842	      4.47654433	     -1.96313566	      9.34440196	    -11.09229824	      0.32659766	     37.37495312	     90.00000001	      0.00000000	      0.00000000	    -13.03440920	    -11.07696451	     -1.00174242	     56.44604867	     90.00000001	      0.00000000	      0.00000000
      3.51000000	      2.73766102	     -3.24080792	     -1.84713693	     -0.06242847	      0.92445854	     -0.07833265	      2.55569625	     -3.93053023	    -19.79550889	     30.44611994	      5.02919185	      0.53138504	     22.19281613	      9.86734313	     -7.57080027	     23.58595557	     -8.34167727	    -17.72449774	     38.01573761	     -2.19295090	      0.66349979	     10.33472134	     -3.06048179	     -7.57080027	    -18.20232057	      4.15827786	     -1.76272858	      9.29855498	    -10.91476153	      0.08190419	     37.39321933	     90.00000001	      0.00000000	      0.00000000	    -13.01477334	    -11.09574468	     -0.99658214	     56.36127418	     90.00000001	      0.00000000	      0.00000000
      3.52000000	      2.69001982	     -3.28218103	     -2.10031005	     -0.05884391	      0.92464726	     -0.07919949	      2.37049068	     -3.94270316	    -19.70591291	     30.38713705	      4.94932451	      0.53035559	     22.18437224	      9.87380590	     -7.57070506	     23.39655809	     -8.25423143	    -17.55748244	     38.17982374	     -2.30756024	      0.66636363	     10.37819650	     -3.10525608	     -7.57070506	    -17.97410088	      3.94644416	     -1.68749186	      9.18659545	    -10.79028541	      0.10594981	     37.39557044	     90.00000001	      0.00000000	      0.00000000	    -13.16419370	    -11.08645367	     -1.00654015	     56.29279892	     90.00000001	      0.00000000	      0.00000000
      3.53000000	      2.88033854	     -3.13388855	     -2.51941048	     -0.05522563	      0.92550297	     -0.07991890	      1.71977985	     -4.10755071	    -19.00251714	     29.78536797	      5.08192751	      0.51985274	     22.16912797	      9.97553236	     -7.56942011	     22.75124414	     -8.05676900	    -17.49120789	     38.19180895	     -2.12112081	      0.66657281	     10.71275915	     -4.06045604	     -7.56942011	    -18.03174887	      3.47480206	     -1.44245021	      9.03159744	    -10.66367395	      0.11598826	     37.63821202	     90.00000001	      0.00000000	      0.00000000	    -13.15886003	    -11.06056219	     -1.18504083	     56.19615806	     90.00000001	      0.00000000	      0.00000000
      3.54000000	      2.79828937	     -3.16324430	     -2.75009287	     -0.05175385	      0.92575151	     -0.08097637	      1.54686256	     -4.15276142	    -18.98734258	     29.69337712	      5.01254684	      0.51824720	     22.14533948	      9.96735731	     -7.56933094	     22.56601313	     -8.00638982	    -17.41223471	     38.29997843	     -2.15251930	      0.66846073	     10.72587531	     -4.10333066	     -7.56933094	    -17.76700678	      3.28673413	     -1.39749953	      8.94241973	    -10.52330572	      0.14694033	     37.66641408	     90.00000001	      0.00000000	      0.00000000	    -13.30190180	    -11.04745614	     -1.19386825	     56.12516406	     90.00000001	      0.00000000	      0.00000000
      3.55000000	      2.71819910	     -2.95687919	     -3.03829239	     -0.04828868	      0.92615072	     -0.08190636	      1.25780846	     -4.37565554	    -18.84868685	     29.21438987	      4.86694305	      0.50988729	     22.05206492	     10.04370840	     -7.56905309	     22.28770717	     -7.86723976	    -17.62041255	     38.36099491	     -1.92133078	      0.66952567	     10.94041187	     -4.37112400	     -7.56905309	    -17.49211527	      2.80278922	     -1.33779396	      8.81052648	    -10.36346127	      0.19474608	     37.82768148	     90.00000001	      0.00000000	      0.00000000	    -13.36239650	    -11.08944465	     -1.30763693	     56.01256400	     90.00000001	      0.00000000	      0.00000000
      3.56000000	      2.93612821	     -2.86478875	     -3.40680636	     -0.04484350	      0.92729341	     -0.08298573	      0.55499773	     -4.58634706	    -18.40705126	     28.60619804	      5.05184543	      0.49927234	     21.83080288	     10.40075993	     -7.56820731	     21.47939251	     -7.73192904	    -17.98843218	     37.99619781	     -1.87494292	      0.66315876	     11.17465239	     -4.86141889	     -7.56820731	    -17.60494643	      2.45781668	     -1.08226329	      8.63429546	    -10.26931493	      0.29989197	     38.22407836	     90.00000001	      0.00000000	      0.00000000	    -13.29615654	    -10.94902106	     -1.57134740	     55.85092234	     90.00000001	      0.00000000	      0.00000000
      3.57000000	      2.79686503	     -2.80067351	     -3.62480633	     -0.04143056	      0.92761797	     -0.08412826	      0.34517192	     -4.75637260	    -18.52174700	     28.28668350	      5.02225395	      0.49369576	     21.77583044	     10.43061239	     -7.56797654	     21.23819826	     -7.75048743	    -18.23149783	     37.93126096	     -1.66662844	      0.66202539	     11.21348452	     -4.90290940	     -7.56797654	    -17.26630342	      2.19071922	     -1.09841734	      8.54506707	    -10.13437010	      0.36458169	     38.36277592	     90.00000001	      0.00000000	      0.00000000	    -13.44596905	    -10.97156250	     -1.64194819	     55.72999481	     90.00000001	      0.00000000	      0.00000000
